<svg id="svg" xmlns="http://www.w3.org/2000/svg" xmlns:xlink="http://www.w3.org/1999/xlink" width="400" height="400" viewBox="0, 0, 400,400"><g id="svgg"><path id="path0" d="M20.000 80.000 L 20.000 140.000 40.000 140.000 L 60.000 140.000 60.000 100.000 L 60.000 60.000 100.000 60.000 L 140.000 60.000 140.000 40.000 L 140.000 20.000 80.000 20.000 L 20.000 20.000 20.000 80.000 M260.000 40.000 L 260.000 60.000 300.000 60.000 L 340.000 60.000 340.000 100.000 L 340.000 140.000 360.000 140.000 L 380.000 140.000 380.000 80.000 L 380.000 20.000 320.000 20.000 L 260.000 20.000 260.000 40.000 M20.000 320.000 L 20.000 380.000 80.000 380.000 L 140.000 380.000 140.000 360.000 L 140.000 340.000 100.000 340.000 L 60.000 340.000 60.000 300.000 L 60.000 260.000 40.000 260.000 L 20.000 260.000 20.000 320.000 M340.000 300.000 L 340.000 340.000 300.000 340.000 L 260.000 340.000 260.000 360.000 L 260.000 380.000 320.000 380.000 L 380.000 380.000 380.000 320.000 L 380.000 260.000 360.000 260.000 L 340.000 260.000 340.000 300.000 " stroke="none" fill="#000000" fill-rule="evenodd"></path></g></svg>