<svg id="svg" version="1.1" xmlns="http://www.w3.org/2000/svg" xmlns:xlink="http://www.w3.org/1999/xlink" width="400" height="400" viewBox="0, 0, 400,400"><g id="svgg"><path id="path0" d="M24.800 200.000 L 24.800 379.200 200.400 379.200 L 376.000 379.200 376.000 200.000 L 376.000 20.800 200.400 20.800 L 24.800 20.800 24.800 200.000 M373.400 200.000 L 373.400 376.600 200.300 376.700 L 27.200 376.801 27.200 200.000 L 27.200 23.199 200.300 23.300 L 373.400 23.400 373.400 200.000 M207.800 80.253 C 194.852 81.645,183.451 86.486,170.887 95.928 C 166.537 99.196,165.808 98.604,164.815 91.000 C 164.556 89.020,164.220 86.590,164.068 85.600 L 163.792 83.800 146.739 83.696 L 129.686 83.591 129.416 90.496 C 129.047 99.895,129.323 347.056,129.702 347.435 C 130.153 347.886,140.593 346.796,156.800 344.606 C 159.330 344.264,162.745 343.807,164.390 343.590 C 166.034 343.374,167.686 343.100,168.060 342.981 C 168.693 342.780,168.753 340.195,168.905 306.282 C 169.097 263.813,168.841 265.903,173.530 268.557 C 197.725 282.254,228.789 281.901,249.926 267.688 C 276.281 249.967,289.242 211.343,285.391 162.000 C 281.579 113.156,263.836 87.198,230.000 80.964 C 226.683 80.353,211.418 79.864,207.800 80.253 M217.321 114.755 C 235.716 119.352,244.379 139.786,244.391 178.600 C 244.403 223.520,232.053 243.699,204.567 243.666 C 190.978 243.650,179.399 237.985,170.581 227.037 L 169.000 225.074 168.895 182.265 L 168.789 139.456 169.856 137.828 C 181.730 119.707,200.543 110.562,217.321 114.755 " stroke="none" fill="#f9f9f9" fill-rule="evenodd"></path><path id="path1" d="M0.000 200.000 L 0.000 400.000 200.000 400.000 L 400.000 400.000 400.000 200.000 L 400.000 0.000 200.000 0.000 L 0.000 0.000 0.000 200.000 M376.400 200.000 L 376.400 379.600 200.400 379.600 L 24.400 379.600 24.400 200.000 L 24.400 20.400 200.400 20.400 L 376.400 20.400 376.400 200.000 M28.000 200.000 L 28.000 376.000 200.200 376.000 L 372.400 376.000 372.400 200.000 L 372.400 24.000 200.200 24.000 L 28.000 24.000 28.000 200.000 M228.793 71.415 C 240.043 72.808,250.826 76.894,259.388 83.008 C 260.935 84.112,262.650 85.315,263.200 85.680 C 265.084 86.932,272.189 94.158,273.938 96.600 C 274.095 96.820,274.712 97.644,275.308 98.432 C 282.852 108.402,290.517 127.503,292.415 141.061 C 292.605 142.415,293.035 145.025,293.372 146.861 C 295.618 159.098,296.088 183.860,294.387 200.302 C 291.641 226.857,281.372 251.101,266.633 265.830 C 254.997 277.458,242.566 283.876,226.400 286.602 C 224.310 286.955,221.625 287.413,220.433 287.622 C 219.242 287.830,215.147 288.000,211.333 288.000 C 204.359 288.000,201.518 287.679,193.000 285.931 C 178.186 282.889,178.835 281.855,178.802 308.569 C 178.771 334.026,178.473 337.370,175.731 343.092 C 172.920 348.955,168.261 351.925,158.997 353.757 C 137.265 358.056,127.198 356.116,122.539 346.730 C 120.045 341.708,120.200 350.400,120.200 215.200 L 120.200 91.400 121.139 88.116 C 124.036 77.990,129.732 74.651,144.980 74.137 C 155.697 73.776,159.579 74.449,166.720 77.909 C 172.904 80.905,178.910 80.647,183.800 77.174 C 184.854 76.425,190.509 74.505,196.600 72.828 C 199.168 72.121,206.008 71.038,210.400 70.644 C 213.526 70.364,223.769 70.793,228.793 71.415 M203.200 124.440 C 196.345 126.240,191.001 129.459,185.557 135.066 C 182.470 138.245,181.380 139.953,179.880 143.969 C 178.927 146.520,178.335 210.106,179.208 216.200 C 181.678 233.447,210.437 239.891,223.117 226.039 C 231.655 216.712,234.911 200.849,234.209 172.000 C 233.577 146.035,228.678 132.057,218.216 126.363 C 214.333 124.251,207.334 123.354,203.200 124.440 " stroke="none" fill="#04052c" fill-rule="evenodd"></path><path id="path2" d="M27.600 200.000 L 27.600 376.401 200.300 376.300 L 373.000 376.200 373.000 200.000 L 373.000 23.800 200.300 23.700 L 27.600 23.599 27.600 200.000 M372.800 200.000 L 372.800 376.000 200.400 376.000 L 28.000 376.000 28.000 200.000 L 28.000 24.000 200.400 24.000 L 372.800 24.000 372.800 200.000 M206.200 76.166 C 197.467 77.438,191.064 79.395,182.200 83.502 C 174.623 87.012,172.215 87.258,167.778 84.976 C 166.140 84.133,164.800 83.299,164.800 83.122 C 164.800 82.945,164.462 82.800,164.049 82.800 C 163.636 82.800,163.093 82.553,162.843 82.252 C 159.424 78.132,134.367 78.246,131.804 82.394 C 131.666 82.617,131.030 82.800,130.390 82.800 C 129.164 82.800,128.400 83.698,128.400 85.140 C 128.400 85.576,128.213 85.996,127.985 86.072 C 127.193 86.336,125.584 91.694,125.201 95.338 C 124.657 100.518,124.672 331.029,125.216 335.800 C 125.692 339.968,126.639 343.276,127.674 344.388 C 128.074 344.816,128.402 345.489,128.405 345.883 C 128.414 346.946,128.854 348.400,129.168 348.400 C 129.319 348.400,129.272 347.365,129.064 346.100 C 127.882 338.906,128.381 84.659,129.579 83.461 C 130.071 82.969,155.430 82.653,160.400 83.076 L 164.200 83.400 164.532 85.000 C 165.096 87.719,165.706 88.551,167.973 89.700 C 171.804 91.641,174.590 91.094,183.800 86.591 C 186.660 85.193,189.990 83.755,191.200 83.396 C 192.410 83.036,193.713 82.575,194.095 82.371 C 194.477 82.167,195.141 82.000,195.571 82.000 C 196.001 82.000,196.454 81.837,196.577 81.637 C 196.700 81.438,197.746 81.148,198.900 80.993 C 200.055 80.837,201.180 80.581,201.400 80.423 C 203.943 78.596,228.817 78.592,231.400 80.418 C 231.620 80.574,232.832 80.826,234.094 80.979 C 235.355 81.131,236.491 81.423,236.617 81.628 C 236.744 81.833,237.199 82.000,237.629 82.000 C 238.059 82.000,238.723 82.167,239.105 82.371 C 239.487 82.575,240.790 83.043,242.000 83.411 C 249.731 85.761,260.618 93.372,265.601 99.911 C 266.150 100.632,267.184 101.869,267.898 102.659 C 269.085 103.974,270.941 106.831,272.362 109.532 C 272.671 110.119,273.046 110.690,273.196 110.800 C 273.640 111.125,276.800 117.644,276.800 118.234 C 276.800 118.532,277.138 119.378,277.552 120.115 C 277.966 120.851,278.437 122.072,278.598 122.827 C 278.760 123.582,279.034 124.380,279.208 124.600 C 280.203 125.863,282.956 136.360,282.847 138.474 C 282.816 139.064,282.973 139.660,283.196 139.797 C 283.418 139.935,283.600 140.746,283.600 141.600 C 283.600 142.454,283.761 143.252,283.958 143.374 C 284.155 143.496,284.445 145.082,284.602 146.898 C 284.760 148.714,285.025 150.380,285.191 150.600 C 285.491 150.996,285.675 152.467,286.394 160.200 C 286.865 165.274,286.866 191.156,286.394 195.400 C 286.199 197.160,285.917 199.770,285.766 201.200 C 285.616 202.630,285.359 203.980,285.195 204.200 C 285.030 204.420,284.769 205.994,284.614 207.697 C 284.459 209.401,284.167 210.896,283.966 211.021 C 283.765 211.145,283.600 211.957,283.600 212.824 C 283.600 213.691,283.420 214.400,283.200 214.400 C 282.980 214.400,282.797 214.985,282.794 215.700 C 282.783 218.084,280.636 225.820,278.975 229.460 C 278.659 230.154,278.400 230.921,278.400 231.166 C 278.400 231.411,278.235 231.923,278.034 232.305 C 277.405 233.497,276.400 235.907,276.400 236.222 C 276.400 236.691,274.373 240.886,273.609 242.000 C 273.231 242.550,272.337 244.080,271.622 245.400 C 270.311 247.820,267.600 251.786,266.043 253.561 C 265.579 254.090,265.200 254.662,265.200 254.834 C 265.200 255.293,255.306 265.200,254.848 265.200 C 254.633 265.200,254.219 265.434,253.929 265.719 C 252.845 266.783,248.946 269.473,247.400 270.223 C 246.520 270.651,245.710 271.116,245.600 271.258 C 244.823 272.258,235.063 276.153,232.200 276.605 C 231.320 276.744,230.240 277.003,229.800 277.180 C 225.546 278.893,210.362 280.149,204.800 279.247 C 203.370 279.015,200.940 278.652,199.400 278.441 C 196.310 278.016,194.512 277.660,193.600 277.294 C 193.270 277.162,192.010 276.833,190.800 276.564 C 189.590 276.295,187.520 275.773,186.200 275.405 C 177.858 273.078,174.244 273.585,172.324 277.350 C 170.688 280.556,170.659 280.968,170.390 304.800 C 170.095 330.892,169.472 343.060,168.412 343.396 C 168.057 343.509,165.074 344.066,161.783 344.634 C 158.492 345.202,154.900 345.830,153.800 346.029 C 152.031 346.349,149.172 346.616,134.200 347.861 C 132.220 348.026,130.960 348.233,131.400 348.322 C 131.840 348.410,132.470 348.704,132.800 348.975 C 138.249 353.452,167.993 348.521,169.453 342.900 C 169.582 342.405,169.814 342.000,169.970 342.000 C 170.469 342.000,171.909 339.073,172.625 336.600 C 173.236 334.492,173.356 331.227,173.610 309.800 C 174.019 275.159,173.600 275.988,188.820 279.726 C 236.802 291.512,273.564 268.378,285.956 218.600 C 289.596 203.976,290.595 193.554,290.267 173.600 C 289.318 115.871,268.867 83.265,229.401 76.560 C 224.453 75.719,210.851 75.488,206.200 76.166 M199.776 116.555 C 185.118 120.432,172.641 133.048,170.808 145.845 C 169.991 151.548,170.440 217.994,171.315 221.000 C 176.383 238.399,202.466 247.655,220.612 238.495 C 235.496 230.982,242.106 214.474,242.674 183.400 C 243.263 151.125,239.158 133.866,228.371 123.267 C 221.570 116.586,209.960 113.861,199.776 116.555 M213.656 119.428 C 232.083 122.888,240.708 144.643,239.415 184.400 C 238.391 215.904,231.090 231.822,215.273 237.039 C 198.707 242.503,178.642 234.013,174.530 219.800 C 173.662 216.798,173.199 154.936,173.992 147.800 C 175.931 130.353,195.872 116.089,213.656 119.428 " stroke="none" fill="#5b5e75" fill-rule="evenodd"></path><path id="path3" d="M24.585 20.900 C 24.481 21.175,24.441 101.950,24.498 200.400 L 24.600 379.400 200.400 379.400 L 376.200 379.400 376.200 200.000 L 376.200 20.600 200.488 20.500 C 60.127 20.419,24.737 20.500,24.585 20.900 M376.000 200.000 L 376.000 379.200 200.400 379.200 L 24.800 379.200 24.800 200.000 L 24.800 20.800 200.400 20.800 L 376.000 20.800 376.000 200.000 M27.200 200.000 L 27.200 376.801 200.300 376.700 L 373.400 376.600 373.400 200.000 L 373.400 23.400 200.300 23.300 L 27.200 23.199 27.200 200.000 M373.000 200.000 L 373.000 376.200 200.300 376.300 L 27.600 376.401 27.600 200.000 L 27.600 23.599 200.300 23.700 L 373.000 23.800 373.000 200.000 M210.000 79.027 C 205.897 79.490,201.752 80.160,201.400 80.418 C 201.180 80.579,200.055 80.837,198.900 80.993 C 197.746 81.148,196.700 81.438,196.577 81.637 C 196.454 81.837,196.001 82.000,195.571 82.000 C 195.141 82.000,194.477 82.167,194.095 82.371 C 193.713 82.575,192.410 83.036,191.200 83.396 C 189.990 83.755,186.660 85.193,183.800 86.591 C 171.660 92.527,165.997 92.059,164.532 85.000 L 164.200 83.400 160.400 83.076 C 155.471 82.657,130.071 82.969,129.584 83.456 C 127.835 85.205,127.779 346.361,129.527 348.066 C 129.677 348.213,131.420 348.168,133.400 347.966 C 135.380 347.765,140.330 347.328,144.400 346.996 C 148.470 346.663,152.700 346.228,153.800 346.029 C 154.900 345.830,158.492 345.202,161.783 344.634 C 165.074 344.066,168.057 343.509,168.412 343.396 C 169.472 343.060,170.095 330.892,170.390 304.800 C 170.659 280.968,170.688 280.556,172.324 277.350 C 174.244 273.585,177.858 273.078,186.200 275.405 C 187.520 275.773,189.590 276.295,190.800 276.564 C 192.010 276.833,193.270 277.162,193.600 277.294 C 194.512 277.660,196.310 278.016,199.400 278.441 C 200.940 278.652,203.370 279.015,204.800 279.247 C 210.362 280.149,225.546 278.893,229.800 277.180 C 230.240 277.003,231.320 276.744,232.200 276.605 C 235.063 276.153,244.823 272.258,245.600 271.258 C 245.710 271.116,246.520 270.651,247.400 270.223 C 248.946 269.473,252.845 266.783,253.929 265.719 C 254.219 265.434,254.633 265.200,254.848 265.200 C 255.306 265.200,265.200 255.293,265.200 254.834 C 265.200 254.662,265.579 254.090,266.043 253.561 C 267.600 251.786,270.311 247.820,271.622 245.400 C 272.337 244.080,273.231 242.550,273.609 242.000 C 274.373 240.886,276.400 236.691,276.400 236.222 C 276.400 235.907,277.405 233.497,278.034 232.305 C 278.235 231.923,278.400 231.411,278.400 231.166 C 278.400 230.921,278.659 230.154,278.975 229.460 C 280.636 225.820,282.783 218.084,282.794 215.700 C 282.797 214.985,282.980 214.400,283.200 214.400 C 283.420 214.400,283.600 213.691,283.600 212.824 C 283.600 211.957,283.765 211.145,283.966 211.021 C 284.167 210.896,284.459 209.401,284.614 207.697 C 284.769 205.994,285.030 204.420,285.195 204.200 C 285.359 203.980,285.616 202.630,285.766 201.200 C 285.917 199.770,286.199 197.160,286.394 195.400 C 286.866 191.156,286.865 165.274,286.394 160.200 C 285.675 152.467,285.491 150.996,285.191 150.600 C 285.025 150.380,284.760 148.714,284.602 146.898 C 284.445 145.082,284.155 143.496,283.958 143.374 C 283.761 143.252,283.600 142.454,283.600 141.600 C 283.600 140.746,283.418 139.935,283.196 139.797 C 282.973 139.660,282.816 139.064,282.847 138.474 C 282.956 136.360,280.203 125.863,279.208 124.600 C 279.034 124.380,278.760 123.582,278.598 122.827 C 278.437 122.072,277.966 120.851,277.552 120.115 C 277.138 119.378,276.800 118.532,276.800 118.234 C 276.800 117.644,273.640 111.125,273.196 110.800 C 273.046 110.690,272.671 110.119,272.362 109.532 C 270.941 106.831,269.085 103.974,267.898 102.659 C 267.184 101.869,266.150 100.632,265.601 99.911 C 260.618 93.372,249.731 85.761,242.000 83.411 C 240.790 83.043,239.487 82.575,239.105 82.371 C 238.723 82.167,238.059 82.000,237.629 82.000 C 237.199 82.000,236.746 81.837,236.623 81.637 C 236.500 81.438,235.454 81.158,234.300 81.015 C 233.145 80.872,231.840 80.604,231.400 80.420 C 229.047 79.434,214.680 78.498,210.000 79.027 M230.000 80.964 C 263.836 87.198,281.579 113.156,285.391 162.000 C 289.242 211.343,276.281 249.967,249.926 267.688 C 228.789 281.901,197.725 282.254,173.530 268.557 C 168.841 265.903,169.097 263.813,168.905 306.282 C 168.753 340.195,168.693 342.780,168.060 342.981 C 167.686 343.100,166.034 343.374,164.390 343.590 C 162.745 343.807,159.330 344.264,156.800 344.606 C 140.593 346.796,130.153 347.886,129.702 347.435 C 129.323 347.056,129.047 99.895,129.416 90.496 L 129.686 83.591 146.739 83.696 L 163.792 83.800 164.068 85.600 C 164.220 86.590,164.556 89.020,164.815 91.000 C 165.808 98.604,166.537 99.196,170.887 95.928 C 183.451 86.486,194.852 81.645,207.800 80.253 C 211.418 79.864,226.683 80.353,230.000 80.964 M203.200 113.970 C 191.682 115.633,177.972 125.443,169.856 137.828 L 168.789 139.456 168.895 182.265 L 169.000 225.074 170.581 227.037 C 179.399 237.985,190.978 243.650,204.567 243.666 C 232.053 243.699,244.403 223.520,244.391 178.600 C 244.377 131.593,230.622 110.010,203.200 113.970 M217.760 116.946 C 236.105 123.268,243.416 142.768,242.674 183.400 C 242.224 207.994,238.563 221.522,229.602 231.702 C 213.881 249.563,177.700 242.919,171.315 221.000 C 170.440 217.994,169.991 151.548,170.808 145.845 C 172.368 134.952,180.226 125.534,193.208 118.996 C 200.371 115.389,210.732 114.524,217.760 116.946 " stroke="none" fill="#848494" fill-rule="evenodd"></path><path id="path4" d="M372.598 200.000 C 372.598 296.910,372.644 336.555,372.700 288.100 C 372.756 239.645,372.756 160.355,372.700 111.900 C 372.644 63.445,372.598 103.090,372.598 200.000 M210.400 70.644 C 206.008 71.038,199.168 72.121,196.600 72.828 C 190.509 74.505,184.854 76.425,183.800 77.174 C 178.910 80.647,172.904 80.905,166.720 77.909 C 159.579 74.449,155.697 73.776,144.980 74.137 C 129.732 74.651,124.036 77.990,121.139 88.116 L 120.200 91.400 120.200 215.200 C 120.200 350.400,120.045 341.708,122.539 346.730 C 127.198 356.116,137.265 358.056,158.997 353.757 C 168.261 351.925,172.920 348.955,175.731 343.092 C 178.473 337.370,178.771 334.026,178.802 308.569 C 178.835 281.855,178.186 282.889,193.000 285.931 C 201.518 287.679,204.359 288.000,211.333 288.000 C 215.147 288.000,219.242 287.830,220.433 287.622 C 221.625 287.413,224.310 286.955,226.400 286.602 C 242.566 283.876,254.997 277.458,266.633 265.830 C 281.372 251.101,291.641 226.857,294.387 200.302 C 296.088 183.860,295.618 159.098,293.372 146.861 C 293.035 145.025,292.605 142.415,292.415 141.061 C 290.517 127.503,282.852 108.402,275.308 98.432 C 274.712 97.644,274.095 96.820,273.938 96.600 C 272.189 94.158,265.084 86.932,263.200 85.680 C 262.650 85.315,260.935 84.112,259.388 83.008 C 255.357 80.129,252.648 78.650,246.241 75.830 C 238.290 72.330,220.423 69.745,210.400 70.644 M229.401 76.560 C 254.077 80.752,271.338 95.127,281.084 119.600 C 291.473 145.688,293.558 188.062,285.956 218.600 C 273.564 268.378,236.802 291.512,188.820 279.726 C 179.348 277.400,177.064 277.599,175.341 280.904 C 174.028 283.422,173.895 285.637,173.610 309.800 C 173.356 331.227,173.236 334.492,172.625 336.600 C 171.909 339.073,170.469 342.000,169.970 342.000 C 169.814 342.000,169.582 342.405,169.453 342.900 C 167.979 348.576,135.663 353.756,132.604 348.806 C 132.466 348.583,131.574 348.400,130.623 348.400 C 128.835 348.400,128.421 347.930,128.405 345.883 C 128.402 345.489,128.074 344.816,127.674 344.388 C 126.639 343.276,125.692 339.968,125.216 335.800 C 124.672 331.029,124.657 100.518,125.201 95.338 C 125.584 91.694,127.193 86.336,127.985 86.072 C 128.213 85.996,128.400 85.576,128.400 85.140 C 128.400 83.698,129.164 82.800,130.390 82.800 C 131.030 82.800,131.666 82.617,131.804 82.394 C 134.367 78.246,159.424 78.132,162.843 82.252 C 163.093 82.553,163.636 82.800,164.049 82.800 C 164.462 82.800,164.800 82.945,164.800 83.122 C 164.800 83.299,166.140 84.133,167.778 84.976 C 172.215 87.258,174.623 87.012,182.200 83.502 C 197.645 76.347,213.995 73.942,229.401 76.560 M202.600 119.379 C 191.233 121.667,178.259 132.064,175.253 141.294 C 173.368 147.081,172.755 213.662,174.530 219.800 C 178.642 234.013,198.707 242.503,215.273 237.039 C 231.090 231.822,238.391 215.904,239.415 184.400 C 240.935 137.662,227.719 114.321,202.600 119.379 M213.416 124.547 C 226.829 127.427,233.494 142.639,234.209 172.000 C 234.911 200.849,231.655 216.712,223.117 226.039 C 210.437 239.891,181.678 233.447,179.208 216.200 C 178.335 210.106,178.927 146.520,179.880 143.969 C 181.380 139.953,182.470 138.245,185.557 135.066 C 191.001 129.459,196.345 126.240,203.200 124.440 C 205.266 123.897,210.653 123.954,213.416 124.547 " stroke="none" fill="#2b2e4c" fill-rule="evenodd"></path></g></svg>